# Blender 3.5.1
# www.blender.org
mtllib hexplane.mtl
o Cylinder
v 0.000000 -0.000000 -1.000000
v 0.866025 -0.000000 -0.500000
v 0.866025 0.000000 0.500000
v 0.000000 0.000000 1.000000
v -0.866025 0.000000 0.500000
v -0.866025 -0.000000 -0.500000
v -0.433012 -0.000000 -0.250000
v 0.000000 -0.000000 -0.500000
v 0.433012 -0.000000 -0.250000
v 0.433012 0.000000 0.250000
v 0.000000 0.000000 0.500000
v -0.433012 0.000000 0.250000
vn -0.0000 1.0000 -0.0000
vt 0.244686 0.678389
vt 0.244686 0.651182
vt 0.244686 0.521199
vt 0.244686 0.487947
vt 0.244686 0.357964
vt 0.244686 0.324711
vt 0.244686 0.194728
vt 0.244686 0.157445
vt 0.244686 0.027462
vt 0.244686 0.975638
vt 0.244686 0.808372
vt 0.244686 0.845656
vt 0.188402 0.775877
vt 0.188401 0.878151
vt 0.188402 0.710885
vt 0.188402 0.618687
vt 0.188402 0.553695
vt 0.188401 0.455451
vt 0.188401 0.390460
vt 0.188402 0.292215
vt 0.188402 0.227224
vt 0.188402 0.124949
vt 0.188402 0.059958
vt 0.188401 0.943143
s 0
f 1/1/1 6/11/1 7/13/1 8/15/1
f 2/3/1 1/2/1 8/16/1 9/17/1
f 3/5/1 2/4/1 9/18/1 10/19/1
f 4/7/1 3/6/1 10/20/1 11/21/1
f 5/9/1 4/8/1 11/22/1 12/23/1
f 5/10/1 12/24/1 7/14/1 6/12/1
