g Body_01
v 0.0598137 0 0.042 0.494118 0.494118 0.52549
v 0.05992 0 0.0418938 0.494118 0.494118 0.52549
v 0.0600262 0 0.042 0.494118 0.494118 0.52549
v 0.0600262 0.00165086 0.042 0.494118 0.494118 0.52549
v 0.0598137 0.00157574 0.042 0.494118 0.494118 0.52549
v 0.05992 0.00157574 0.0418938 0.494118 0.494118 0.52549
vn -0 -1 -0
vn -0 -0 1
vn -0.707107 -0 -0.707107
vn 0.707107 0 -0.707107
vn -0.316228 0.894427 -0.316228
vt 0.042 0.0598137
vt 0.0418938 0.05992
vt 0.042 0.0600262
vt -0.0200262 -0.016
vt -0.0200262 -0.0143491
vt -0.0198137 -0.0144243
vt -0.0198137 -0.016
vt 0 -0.001
vt 0.000150253 -0.001
vt 0.000150253 0.000575736
vt 0 0.000575736
vt -0.001 0.000150253
vt -0.001 0
vt 0.000575736 0
vt 0.000650862 0.000150253
vt 0.00209709 -0.0018757
vt 0.0022223 -0.00198769
vt 0.00232247 -0.0018757
f 1/1/1 2/2/1 3/3/1
f 3/4/2 4/5/2 5/6/2
f 5/6/2 1/7/2 3/4/2
f 2/8/3 1/9/3 5/10/3
f 5/10/3 6/11/3 2/8/3
f 3/12/4 2/13/4 6/14/4
f 6/14/4 4/15/4 3/12/4
f 4/16/5 6/17/5 5/18/5
